<?xml version="1.0" encoding="UTF-8"?>
<!DOCTYPE svg PUBLIC "-//W3C//DTD SVG 1.1//EN" "http://www.w3.org/Graphics/SVG/1.1/DTD/svg11.dtd">
<svg xmlns="http://www.w3.org/2000/svg" version="1.1" width="432px" height="90px" style="shape-rendering:geometricPrecision; text-rendering:geometricPrecision; image-rendering:optimizeQuality; fill-rule:evenodd; clip-rule:evenodd" xmlns:xlink="http://www.w3.org/1999/xlink">
<g><path style="opacity:1" fill="#fffefe" d="M -0.5,-0.5 C 143.5,-0.5 287.5,-0.5 431.5,-0.5C 431.5,29.5 431.5,59.5 431.5,89.5C 287.5,89.5 143.5,89.5 -0.5,89.5C -0.5,59.5 -0.5,29.5 -0.5,-0.5 Z"/></g>
<g><path style="opacity:1" fill="#ff2bab" d="M 83.5,17.5 C 99.9095,15.118 111.41,21.4514 118,36.5C 120.851,52.9698 114.685,64.4698 99.5,71C 75.3151,73.8193 63.4817,62.9859 64,38.5C 65.5982,33.4676 68.0982,28.9676 71.5,25C 75.4275,22.2098 79.4275,19.7098 83.5,17.5 Z"/></g>
<g><path style="opacity:1" fill="#ffe3f4" d="M 76.5,27.5 C 79.2469,27.1866 81.9135,27.52 84.5,28.5C 81.6336,29.208 78.8003,29.8747 76,30.5C 75.6667,33.1667 75.3333,35.8333 75,38.5C 74.013,34.5252 74.513,30.8585 76.5,27.5 Z"/></g>
<g><path style="opacity:1" fill="#ffd7ef" d="M 97.5,27.5 C 106.857,25.8529 110.19,29.5196 107.5,38.5C 106.682,35.8929 106.182,33.2263 106,30.5C 102.746,30.162 99.9123,29.162 97.5,27.5 Z"/></g>
<g><path style="opacity:1" fill="#ffe7f5" d="M 87.5,35.5 C 96.4946,34.6631 100.661,38.6631 100,47.5C 97.5493,53.0891 93.3826,54.9224 87.5,53C 82.8451,50.1034 81.3451,45.9367 83,40.5C 84.1932,38.5029 85.6932,36.8362 87.5,35.5 Z"/></g>
<g><path style="opacity:1" fill="#ff2cab" d="M 87.5,37.5 C 96.3298,36.1621 99.8298,39.8288 98,48.5C 92.8854,54.0753 88.2187,53.7419 84,47.5C 83.1822,43.4695 84.3489,40.1361 87.5,37.5 Z"/></g>
<g><path style="opacity:1" fill="#ffe3f4" d="M 106.5,51.5 C 110.38,60.1399 107.38,63.3066 97.5,61C 100.426,60.7822 103.26,60.2822 106,59.5C 106.497,56.854 106.664,54.1873 106.5,51.5 Z"/></g>
<g><path style="opacity:1" fill="#fff9fc" d="M 74.5,51.5 C 73.9943,58.4918 77.3276,61.6585 84.5,61C 76.166,63.1668 72.8326,60.0001 74.5,51.5 Z"/></g>
</svg>
