<?xml version="1.0" encoding="UTF-8"?>
<!DOCTYPE svg PUBLIC "-//W3C//DTD SVG 1.1//EN" "http://www.w3.org/Graphics/SVG/1.1/DTD/svg11.dtd">
<svg xmlns="http://www.w3.org/2000/svg" version="1.1" width="728px" height="90px" style="shape-rendering:geometricPrecision; text-rendering:geometricPrecision; image-rendering:optimizeQuality; fill-rule:evenodd; clip-rule:evenodd" xmlns:xlink="http://www.w3.org/1999/xlink">
<g><path style="opacity:0.004" fill="#000000" d="M 485.5,-0.5 C 485.833,-0.5 486.167,-0.5 486.5,-0.5C 486.315,0.170143 485.981,0.170143 485.5,-0.5 Z"/></g>
<g><path style="opacity:0.004" fill="#000000" d="M 231.5,0.5 C 232.833,1.16667 232.833,1.16667 231.5,0.5 Z"/></g>
<g><path style="opacity:0.004" fill="#000000" d="M 442.5,1.5 C 443.833,2.16667 443.833,2.16667 442.5,1.5 Z"/></g>
<g><path style="opacity:0.004" fill="#000000" d="M 463.5,1.5 C 464.833,2.16667 464.833,2.16667 463.5,1.5 Z"/></g>
<g><path style="opacity:0.004" fill="#000000" d="M 468.5,3.5 C 469.833,4.16667 469.833,4.16667 468.5,3.5 Z"/></g>
<g><path style="opacity:0.004" fill="#000000" d="M 16.5,4.5 C 17.8333,5.16667 17.8333,5.16667 16.5,4.5 Z"/></g>
<g><path style="opacity:0.004" fill="#000000" d="M 157.5,4.5 C 158.833,5.16667 158.833,5.16667 157.5,4.5 Z"/></g>
<g><path style="opacity:0.004" fill="#000000" d="M 208.5,4.5 C 209.833,5.16667 209.833,5.16667 208.5,4.5 Z"/></g>
<g><path style="opacity:0.004" fill="#000000" d="M 568.5,4.5 C 569.833,5.16667 569.833,5.16667 568.5,4.5 Z"/></g>
<g><path style="opacity:0.004" fill="#000000" d="M 62.5,5.5 C 63.8333,6.16667 63.8333,6.16667 62.5,5.5 Z"/></g>
<g><path style="opacity:0.004" fill="#000000" d="M 300.5,9.5 C 301.833,10.1667 301.833,10.1667 300.5,9.5 Z"/></g>
<g><path style="opacity:0.004" fill="#000000" d="M 165.5,12.5 C 166.833,13.1667 166.833,13.1667 165.5,12.5 Z"/></g>
<g><path style="opacity:0.004" fill="#000000" d="M 130.5,13.5 C 131.833,14.1667 131.833,14.1667 130.5,13.5 Z"/></g>
<g><path style="opacity:0.004" fill="#000000" d="M 388.5,13.5 C 389.833,14.1667 389.833,14.1667 388.5,13.5 Z"/></g>
<g><path style="opacity:0.004" fill="#000000" d="M 535.5,13.5 C 536.833,14.1667 536.833,14.1667 535.5,13.5 Z"/></g>
<g><path style="opacity:0.004" fill="#000000" d="M 491.5,14.5 C 492.833,15.1667 492.833,15.1667 491.5,14.5 Z"/></g>
<g><path style="opacity:0.004" fill="#000000" d="M 364.5,16.5 C 365.833,17.1667 365.833,17.1667 364.5,16.5 Z"/></g>
<g><path style="opacity:0.004" fill="#000000" d="M 50.5,20.5 C 51.8333,21.1667 51.8333,21.1667 50.5,20.5 Z"/></g>
<g><path style="opacity:1" fill="#c35c99" d="M 273.5,30.5 C 271.343,28.5879 269.009,26.9213 266.5,25.5C 258.114,22.2663 249.447,21.5997 240.5,23.5C 251.429,18.6429 261.762,19.8096 271.5,27C 272.823,27.8159 273.489,28.9826 273.5,30.5 Z"/></g>
<g><path style="opacity:1" fill="#fc65c2" d="M 266.5,25.5 C 266.414,26.4959 266.748,27.3292 267.5,28C 263.726,29.1825 260.559,28.3492 258,25.5C 257.13,26.1079 256.63,26.9412 256.5,28C 257.856,29.5671 258.523,31.4004 258.5,33.5C 254.5,33.8333 254.5,34.1667 258.5,34.5C 258.5,35.5 258.5,36.5 258.5,37.5C 255.115,36.372 251.781,36.372 248.5,37.5C 245.833,37.5 243.167,37.5 240.5,37.5C 240.5,36.5 240.5,35.5 240.5,34.5C 243.444,35.8403 246.111,35.507 248.5,33.5C 249.41,29.7376 247.744,28.071 243.5,28.5C 242.167,28.6667 240.833,28.8333 239.5,29C 238.748,29.6708 238.414,30.5041 238.5,31.5C 238.167,31.5 237.833,31.5 237.5,31.5C 237.423,30.2502 236.756,29.4169 235.5,29C 238.056,27.9455 239.723,26.1122 240.5,23.5C 249.447,21.5997 258.114,22.2663 266.5,25.5 Z"/></g>
<g><path style="opacity:0.004" fill="#000000" d="M 376.5,22.5 C 377.833,23.1667 377.833,23.1667 376.5,22.5 Z"/></g>
<g><path style="opacity:0.004" fill="#000000" d="M 618.5,24.5 C 619.833,25.1667 619.833,25.1667 618.5,24.5 Z"/></g>
<g><path style="opacity:0.004" fill="#000000" d="M 601.5,25.5 C 602.833,26.1667 602.833,26.1667 601.5,25.5 Z"/></g>
<g><path style="opacity:0.004" fill="#000000" d="M 179.5,26.5 C 180.833,27.1667 180.833,27.1667 179.5,26.5 Z"/></g>
<g><path style="opacity:0.004" fill="#000000" d="M 647.5,26.5 C 648.833,27.1667 648.833,27.1667 647.5,26.5 Z"/></g>
<g><path style="opacity:0.004" fill="#000000" d="M 343.5,28.5 C 344.833,29.1667 344.833,29.1667 343.5,28.5 Z"/></g>
<g><path style="opacity:0.004" fill="#000000" d="M 544.5,28.5 C 545.833,29.1667 545.833,29.1667 544.5,28.5 Z"/></g>
<g><path style="opacity:0.004" fill="#000000" d="M 664.5,28.5 C 665.833,29.1667 665.833,29.1667 664.5,28.5 Z"/></g>
<g><path style="opacity:0.004" fill="#000000" d="M 174.5,30.5 C 175.833,31.1667 175.833,31.1667 174.5,30.5 Z"/></g>
<g><path style="opacity:1" fill="#d5d5d5" d="M 544.5,58.5 C 544.44,57.9569 544.107,57.6236 543.5,57.5C 542.833,58.1667 542.167,58.8333 541.5,59.5C 540.502,49.8563 540.168,40.1896 540.5,30.5C 541.209,29.596 542.209,29.2627 543.5,29.5C 543.177,33.226 543.511,36.8927 544.5,40.5C 554.304,36.0684 560.304,39.0684 562.5,49.5C 560.451,60.4969 554.451,63.4969 544.5,58.5 Z M 547.5,42.5 C 553.34,41.5793 557.007,43.9127 558.5,49.5C 557.189,55.6426 553.523,57.8093 547.5,56C 542.248,51.5062 542.248,47.0062 547.5,42.5 Z"/></g>
<g><path style="opacity:0.004" fill="#000000" d="M 157.5,31.5 C 158.833,32.1667 158.833,32.1667 157.5,31.5 Z"/></g>
<g><path style="opacity:0.004" fill="#000000" d="M 172.5,31.5 C 173.833,32.1667 173.833,32.1667 172.5,31.5 Z"/></g>
<g><path style="opacity:0.333" fill="#5a0838" d="M 240.5,30.5 C 242.604,30.2011 244.604,30.5344 246.5,31.5C 244.257,32.4742 241.924,32.8076 239.5,32.5C 239.5,32.1667 239.5,31.8333 239.5,31.5C 240.167,31.5 240.5,31.1667 240.5,30.5 Z"/></g>
<g><path style="opacity:0.004" fill="#000000" d="M 410.5,32.5 C 411.833,33.1667 411.833,33.1667 410.5,32.5 Z"/></g>
<g><path style="opacity:0.999" fill="#fafafa" d="M 484.5,32.5 C 485.5,32.5 486.5,32.5 487.5,32.5C 487.5,36.5 487.5,40.5 487.5,44.5C 492.695,44.8205 497.695,44.4872 502.5,43.5C 502.5,39.8333 502.5,36.1667 502.5,32.5C 503.5,32.5 504.5,32.5 505.5,32.5C 505.832,41.5246 505.498,50.5246 504.5,59.5C 503.833,55.3525 503.166,51.3525 502.5,47.5C 497.833,47.5 493.167,47.5 488.5,47.5C 487.517,51.2984 487.183,55.2984 487.5,59.5C 486.5,59.5 485.5,59.5 484.5,59.5C 484.5,50.5 484.5,41.5 484.5,32.5 Z"/></g>
<g><path style="opacity:0.004" fill="#000000" d="M 722.5,32.5 C 723.833,33.1667 723.833,33.1667 722.5,32.5 Z"/></g>
<g><path style="opacity:0.004" fill="#000000" d="M 630.5,33.5 C 631.833,34.1667 631.833,34.1667 630.5,33.5 Z"/></g>
<g><path style="opacity:1" fill="#e868b7" d="M 266.5,25.5 C 269.009,26.9213 271.343,28.5879 273.5,30.5C 275.588,32.3356 276.921,34.6689 277.5,37.5C 278.275,42.7968 278.608,48.1301 278.5,53.5C 278.598,55.5529 277.931,57.2196 276.5,58.5C 277.161,49.6008 276.161,40.9341 273.5,32.5C 272.833,32.1667 272.167,31.8333 271.5,31.5C 270.833,34.6417 270.166,37.6417 269.5,40.5C 269.806,37.6146 269.473,34.9479 268.5,32.5C 265.809,30.4038 262.809,30.0705 259.5,31.5C 262.187,32.2604 264.853,32.9271 267.5,33.5C 267.5,35.5 267.5,37.5 267.5,39.5C 265.271,38.9447 263.605,37.6114 262.5,35.5C 262.289,40.6297 261.956,45.6297 261.5,50.5C 261.5,50.1667 261.5,49.8333 261.5,49.5C 261.5,48.1667 261.5,46.8333 261.5,45.5C 259.457,39.3064 255.124,36.9731 248.5,38.5C 248.5,38.1667 248.5,37.8333 248.5,37.5C 251.781,36.372 255.115,36.372 258.5,37.5C 258.5,36.5 258.5,35.5 258.5,34.5C 254.5,34.1667 254.5,33.8333 258.5,33.5C 258.523,31.4004 257.856,29.5671 256.5,28C 256.63,26.9412 257.13,26.1079 258,25.5C 260.559,28.3492 263.726,29.1825 267.5,28C 266.748,27.3292 266.414,26.4959 266.5,25.5 Z"/></g>
<g><path style="opacity:0.439" fill="#4b062d" d="M 268.5,32.5 C 267.833,32.5 267.5,32.8333 267.5,33.5C 264.853,32.9271 262.187,32.2604 259.5,31.5C 262.809,30.0705 265.809,30.4038 268.5,32.5 Z"/></g>
<g><path style="opacity:0.999" fill="#d8d8d8" d="M 402.5,38.5 C 404.265,39.4614 406.265,39.7947 408.5,39.5C 408.5,40.5 408.5,41.5 408.5,42.5C 406.5,42.5 404.5,42.5 402.5,42.5C 402.334,46.5138 402.501,50.5138 403,54.5C 404.789,56.229 406.956,56.8957 409.5,56.5C 409.5,57.8333 409.5,59.1667 409.5,60.5C 405.808,61.0288 402.642,60.0288 400,57.5C 398.612,52.6278 398.112,47.6278 398.5,42.5C 397.167,42.5 395.833,42.5 394.5,42.5C 394.5,41.1667 394.5,39.8333 394.5,38.5C 398.151,38.8383 399.817,37.1716 399.5,33.5C 400.5,33.5 401.5,33.5 402.5,33.5C 402.5,35.1667 402.5,36.8333 402.5,38.5 Z"/></g>
<g><path style="opacity:0.251" fill="#470b2e" d="M 268.5,32.5 C 269.473,34.9479 269.806,37.6146 269.5,40.5C 268.508,40.6716 267.842,40.3382 267.5,39.5C 267.5,37.5 267.5,35.5 267.5,33.5C 268.167,33.5 268.5,33.1667 268.5,32.5 Z"/></g>
<g><path style="opacity:0.541" fill="#6d1849" d="M 237.5,33.5 C 237.833,33.5 238.167,33.5 238.5,33.5C 239.01,36.3878 238.344,38.7211 236.5,40.5C 236.5,38.5 236.5,36.5 236.5,34.5C 237.167,34.5 237.5,34.1667 237.5,33.5 Z"/></g>
<g><path style="opacity:0.004" fill="#000000" d="M 477.5,36.5 C 478.833,37.1667 478.833,37.1667 477.5,36.5 Z"/></g>
<g><path style="opacity:1" fill="#da60a9" d="M 240.5,23.5 C 239.723,26.1122 238.056,27.9455 235.5,29C 236.756,29.4169 237.423,30.2502 237.5,31.5C 237.5,32.1667 237.5,32.8333 237.5,33.5C 236.833,33.5 236.5,33.8333 236.5,34.5C 236.5,36.5 236.5,38.5 236.5,40.5C 234.874,38.7568 232.874,38.2568 230.5,39C 230.957,39.414 231.291,39.914 231.5,40.5C 226.9,47.3389 227.567,53.5055 233.5,59C 232.269,60.1827 232.269,61.3493 233.5,62.5C 234.634,59.4243 235.634,56.4243 236.5,53.5C 236.198,56.0593 236.532,58.3926 237.5,60.5C 237.5,61.1667 237.5,61.8333 237.5,62.5C 236.414,62.62 235.747,63.2867 235.5,64.5C 236.225,65.8669 236.892,67.2003 237.5,68.5C 232.612,65.4469 229.112,61.1136 227,55.5C 223.909,43.9517 226.742,34.1184 235.5,26C 237.078,24.9055 238.745,24.0722 240.5,23.5 Z"/></g>
<g><path style="opacity:0.263" fill="#525252" d="M 402.5,38.5 C 404.833,38.5 407.167,38.5 409.5,38.5C 409.768,40.099 409.434,41.4324 408.5,42.5C 408.5,41.5 408.5,40.5 408.5,39.5C 406.265,39.7947 404.265,39.4614 402.5,38.5 Z"/></g>
<g><path style="opacity:0.766" fill="#b7b7b7" d="M 502.5,32.5 C 503.568,31.5655 504.901,31.2322 506.5,31.5C 506.5,41.1667 506.5,50.8333 506.5,60.5C 505.167,60.5 503.833,60.5 502.5,60.5C 502.5,56.1667 502.5,51.8333 502.5,47.5C 503.166,51.3525 503.833,55.3525 504.5,59.5C 505.498,50.5246 505.832,41.5246 505.5,32.5C 504.5,32.5 503.5,32.5 502.5,32.5 Z"/></g>
<g><path style="opacity:0.004" fill="#000000" d="M 135.5,39.5 C 136.833,40.1667 136.833,40.1667 135.5,39.5 Z"/></g>
<g><path style="opacity:0.999" fill="#c2c2c2" d="M 361.5,42.5 C 359.72,43.9899 359.054,45.9899 359.5,48.5C 355.167,48.5 350.833,48.5 346.5,48.5C 350.298,47.5166 354.298,47.1832 358.5,47.5C 358.511,44.1779 356.845,42.5112 353.5,42.5C 350.674,43.9847 347.674,44.9847 344.5,45.5C 344.799,42.3579 346.466,40.1912 349.5,39C 354.401,37.593 358.401,38.7597 361.5,42.5 Z"/></g>
<g><path style="opacity:0.998" fill="#bfbfbf" d="M 386.5,40.5 C 384.973,40.427 383.973,41.0937 383.5,42.5C 373.954,42.5914 371.287,46.9248 375.5,55.5C 374.167,55.5 373.5,56.1667 373.5,57.5C 372.521,60.6248 372.187,63.9581 372.5,67.5C 371.5,67.5 370.5,67.5 369.5,67.5C 368.342,58.3425 368.176,49.0092 369,39.5C 370.011,38.6634 371.178,38.33 372.5,38.5C 372.351,39.552 372.517,40.552 373,41.5C 377.355,37.9726 381.855,37.6392 386.5,40.5 Z"/></g>
<g><path style="opacity:0.423" fill="#676767" d="M 414.5,39.5 C 415.568,38.5655 416.901,38.2322 418.5,38.5C 418.5,43.1667 418.5,47.8333 418.5,52.5C 417.515,48.3656 417.182,44.0323 417.5,39.5C 416.5,39.5 415.5,39.5 414.5,39.5 Z"/></g>
<g><path style="opacity:0.998" fill="#e5e5e5" d="M 414.5,39.5 C 415.5,39.5 416.5,39.5 417.5,39.5C 417.182,44.0323 417.515,48.3656 418.5,52.5C 419.865,56.2542 422.532,57.4209 426.5,56C 427.71,54.9609 428.71,53.7942 429.5,52.5C 430.485,48.3656 430.818,44.0323 430.5,39.5C 431.5,39.5 432.5,39.5 433.5,39.5C 433.5,46.5 433.5,53.5 433.5,60.5C 431.876,60.6399 430.71,59.9733 430,58.5C 425.983,60.7055 421.817,61.0389 417.5,59.5C 416.496,58.3172 415.662,56.9839 415,55.5C 414.501,50.1771 414.334,44.8437 414.5,39.5 Z"/></g>
<g><path style="opacity:0.998" fill="#e1e1e1" d="M 444.5,59.5 C 443.5,59.5 442.5,59.5 441.5,59.5C 441.5,52.8333 441.5,46.1667 441.5,39.5C 442.5,39.5 443.5,39.5 444.5,39.5C 444.369,40.2389 444.536,40.9056 445,41.5C 447.305,39.0695 450.138,38.0695 453.5,38.5C 453.5,39.8333 453.5,41.1667 453.5,42.5C 450.495,42.253 447.995,43.253 446,45.5C 444.691,50.0658 444.191,54.7325 444.5,59.5 Z"/></g>
<g><path style="opacity:1" fill="#d1d1d1" d="M 477.5,45.5 C 477.5,47.1667 477.5,48.8333 477.5,50.5C 471.642,50.1778 465.975,50.5111 460.5,51.5C 462.616,56.2612 466.283,57.7612 471.5,56C 472.044,55.2828 472.711,54.7828 473.5,54.5C 475.179,54.2852 476.179,54.9519 476.5,56.5C 475.657,58.1733 474.324,59.34 472.5,60C 462.901,62.7131 457.568,59.2131 456.5,49.5C 457.557,40.6227 462.557,37.1227 471.5,39C 474.409,40.4055 476.409,42.5722 477.5,45.5 Z M 464.5,42.5 C 469.001,41.6207 472.334,43.1207 474.5,47C 469.833,47.6667 465.167,47.6667 460.5,47C 461.357,44.9812 462.691,43.4812 464.5,42.5 Z"/></g>
<g><path style="opacity:0.163" fill="#3d3d3d" d="M 484.5,31.5 C 484.5,31.8333 484.5,32.1667 484.5,32.5C 484.5,41.5 484.5,50.5 484.5,59.5C 485.5,59.5 486.5,59.5 487.5,59.5C 487.183,55.2984 487.517,51.2984 488.5,47.5C 488.5,51.8333 488.5,56.1667 488.5,60.5C 486.833,60.5 485.167,60.5 483.5,60.5C 483.173,50.6522 483.506,40.9856 484.5,31.5 Z"/></g>
<g><path style="opacity:0.999" fill="#e6e6e6" d="M 513.5,39.5 C 514.5,39.5 515.5,39.5 516.5,39.5C 516.182,44.0323 516.515,48.3656 517.5,52.5C 518.865,56.2542 521.532,57.4209 525.5,56C 527.141,54.871 528.141,53.371 528.5,51.5C 529.483,47.7016 529.817,43.7016 529.5,39.5C 530.5,39.5 531.5,39.5 532.5,39.5C 532.5,46.1667 532.5,52.8333 532.5,59.5C 531.5,59.5 530.5,59.5 529.5,59.5C 529.565,59.0618 529.399,58.7284 529,58.5C 524.01,61.4615 519.344,61.1282 515,57.5C 513.59,51.6208 513.09,45.6208 513.5,39.5 Z"/></g>
<g><path style="opacity:0.004" fill="#000000" d="M 55.5,40.5 C 56.8333,41.1667 56.8333,41.1667 55.5,40.5 Z"/></g>
<g><path style="opacity:0.957" fill="#400b2b" d="M 248.5,38.5 C 255.124,36.9731 259.457,39.3064 261.5,45.5C 260.167,46.8333 260.167,48.1667 261.5,49.5C 261.5,49.8333 261.5,50.1667 261.5,50.5C 261.167,50.5 260.833,50.5 260.5,50.5C 260.167,50.5 259.833,50.5 259.5,50.5C 260.487,43.3314 257.487,39.8314 250.5,40C 248.249,40.7475 246.916,42.2475 246.5,44.5C 245.539,46.2646 245.205,48.2646 245.5,50.5C 244.883,50.3893 244.383,50.056 244,49.5C 243.333,47.5 243.333,45.5 244,43.5C 245.707,41.9625 247.207,40.2959 248.5,38.5 Z"/></g>
<g><path style="opacity:0.999" fill="#cdcdcd" d="M 386.5,40.5 C 388.888,41.2187 390.388,42.8854 391,45.5C 392.182,59.1439 386.349,63.4773 373.5,58.5C 373.5,58.1667 373.5,57.8333 373.5,57.5C 373.5,56.1667 374.167,55.5 375.5,55.5C 384.063,58.3166 387.896,55.3166 387,46.5C 385.624,45.2949 384.458,43.9616 383.5,42.5C 383.973,41.0937 384.973,40.427 386.5,40.5 Z"/></g>
<g><path style="opacity:1" fill="#fa65c1" d="M 276.5,58.5 C 274.883,59.038 273.216,59.3713 271.5,59.5C 271.5,61.1667 271.5,62.8333 271.5,64.5C 267.36,65.0443 266.693,64.0443 269.5,61.5C 269.813,58.7531 269.48,56.0865 268.5,53.5C 267.526,55.7427 267.192,58.076 267.5,60.5C 267.5,60.8333 267.5,61.1667 267.5,61.5C 267.167,61.5 266.833,61.5 266.5,61.5C 263.612,60.9898 261.279,61.6565 259.5,63.5C 261.631,64.3138 263.964,64.8138 266.5,65C 267.38,66.3561 267.714,67.8561 267.5,69.5C 267.167,69.5 266.833,69.5 266.5,69.5C 265.833,69.5 265.167,69.5 264.5,69.5C 260.49,66.5395 256.157,63.7062 251.5,61C 252.833,60 252.833,59 251.5,58C 249.942,57.79 248.609,57.29 247.5,56.5C 250.385,56.8064 253.052,56.4731 255.5,55.5C 259.192,55.6757 261.192,54.0091 261.5,50.5C 261.956,45.6297 262.289,40.6297 262.5,35.5C 263.605,37.6114 265.271,38.9447 267.5,39.5C 267.842,40.3382 268.508,40.6716 269.5,40.5C 270.166,37.6417 270.833,34.6417 271.5,31.5C 272.167,31.8333 272.833,32.1667 273.5,32.5C 276.161,40.9341 277.161,49.6008 276.5,58.5 Z"/></g>
<g><path style="opacity:0.004" fill="#000000" d="M 680.5,41.5 C 681.833,42.1667 681.833,42.1667 680.5,41.5 Z"/></g>
<g><path style="opacity:0.999" fill="#cdcdcd" d="M 319.5,31.5 C 324.777,30.9312 329.777,31.7645 334.5,34C 336.54,36.1851 337.874,38.6851 338.5,41.5C 337.127,41.6567 335.793,41.49 334.5,41C 328.487,33.9005 322.321,33.7339 316,40.5C 313.165,51.3303 317.331,56.497 328.5,56C 331.302,55.0312 333.302,53.1979 334.5,50.5C 336.167,49.1667 337.833,49.1667 339.5,50.5C 335.617,59.2734 328.95,62.4401 319.5,60C 311.878,56.1672 309.045,50.0006 311,41.5C 312.261,36.7452 315.095,33.4118 319.5,31.5 Z"/></g>
<g><path style="opacity:0.118" fill="#303030" d="M 529.5,59.5 C 530.5,59.5 531.5,59.5 532.5,59.5C 532.5,52.8333 532.5,46.1667 532.5,39.5C 531.5,39.5 530.5,39.5 529.5,39.5C 529.817,43.7016 529.483,47.7016 528.5,51.5C 528.5,47.1667 528.5,42.8333 528.5,38.5C 530.167,38.5 531.833,38.5 533.5,38.5C 533.5,45.8333 533.5,53.1667 533.5,60.5C 531.901,60.7678 530.568,60.4345 529.5,59.5 Z"/></g>
<g><path style="opacity:0.004" fill="#000000" d="M 34.5,43.5 C 35.8333,44.1667 35.8333,44.1667 34.5,43.5 Z"/></g>
<g><path style="opacity:0.464" fill="#707070" d="M 484.5,32.5 C 484.5,32.1667 484.5,31.8333 484.5,31.5C 485.833,31.5 487.167,31.5 488.5,31.5C 488.5,35.5 488.5,39.5 488.5,43.5C 493.167,43.5 497.833,43.5 502.5,43.5C 497.695,44.4872 492.695,44.8205 487.5,44.5C 487.5,40.5 487.5,36.5 487.5,32.5C 486.5,32.5 485.5,32.5 484.5,32.5 Z"/></g>
<g><path style="opacity:0.999" fill="#d7d7d7" d="M 361.5,42.5 C 362.265,47.3445 362.932,52.3445 363.5,57.5C 362.595,60.8602 361.095,61.1935 359,58.5C 354.611,60.9488 350.111,61.1155 345.5,59C 343.522,56.5027 343.022,53.6693 344,50.5C 344.708,49.6195 345.542,48.9528 346.5,48.5C 350.833,48.5 355.167,48.5 359.5,48.5C 359.054,45.9899 359.72,43.9899 361.5,42.5 Z M 348.5,51.5 C 352.042,51.1872 355.375,51.5206 358.5,52.5C 355.937,56.4702 352.437,57.4702 348,55.5C 347.421,54.0715 347.588,52.7382 348.5,51.5 Z"/></g>
<g><path style="opacity:0.455" fill="#6c6c6c" d="M 513.5,39.5 C 514.568,38.5655 515.901,38.2322 517.5,38.5C 517.5,43.1667 517.5,47.8333 517.5,52.5C 516.515,48.3656 516.182,44.0323 516.5,39.5C 515.5,39.5 514.5,39.5 513.5,39.5 Z"/></g>
<g><path style="opacity:0.004" fill="#000000" d="M 605.5,47.5 C 606.833,48.1667 606.833,48.1667 605.5,47.5 Z"/></g>
<g><path style="opacity:0.596" fill="#8a3667" d="M 277.5,37.5 C 279.006,40.356 279.672,43.5226 279.5,47C 279.496,49.3608 279.163,51.5274 278.5,53.5C 278.608,48.1301 278.275,42.7968 277.5,37.5 Z"/></g>
<g><path style="opacity:0.417" fill="#666666" d="M 444.5,39.5 C 443.5,39.5 442.5,39.5 441.5,39.5C 441.5,46.1667 441.5,52.8333 441.5,59.5C 442.5,59.5 443.5,59.5 444.5,59.5C 443.432,60.4345 442.099,60.7678 440.5,60.5C 440.5,53.1667 440.5,45.8333 440.5,38.5C 442.099,38.2322 443.432,38.5655 444.5,39.5 Z"/></g>
<g><path style="opacity:0.1" fill="#2e2e2e" d="M 433.5,60.5 C 433.5,53.5 433.5,46.5 433.5,39.5C 432.5,39.5 431.5,39.5 430.5,39.5C 430.818,44.0323 430.485,48.3656 429.5,52.5C 429.5,47.8333 429.5,43.1667 429.5,38.5C 431.167,38.5 432.833,38.5 434.5,38.5C 434.825,46.0191 434.492,53.3524 433.5,60.5 Z"/></g>
<g><path style="opacity:1" fill="#f466be" d="M 259.5,50.5 C 259.5,50.8333 259.5,51.1667 259.5,51.5C 258.833,51.5 258.5,51.8333 258.5,52.5C 257.833,52.5 257.5,52.8333 257.5,53.5C 257.167,53.5 256.833,53.5 256.5,53.5C 254.167,53.5 251.833,53.5 249.5,53.5C 249.167,53.5 248.833,53.5 248.5,53.5C 247.072,50.6967 246.405,47.6967 246.5,44.5C 246.916,42.2475 248.249,40.7475 250.5,40C 257.487,39.8314 260.487,43.3314 259.5,50.5 Z"/></g>
<g><path style="opacity:0.275" fill="#545454" d="M 348.5,51.5 C 352.019,50.1923 355.685,50.1923 359.5,51.5C 359.376,52.1067 359.043,52.44 358.5,52.5C 355.375,51.5206 352.042,51.1872 348.5,51.5 Z"/></g>
<g><path style="opacity:0.48" fill="#767676" d="M 477.5,45.5 C 478.461,47.2646 478.795,49.2646 478.5,51.5C 472.5,51.5 466.5,51.5 460.5,51.5C 465.975,50.5111 471.642,50.1778 477.5,50.5C 477.5,48.8333 477.5,47.1667 477.5,45.5 Z"/></g>
<g><path style="opacity:0.004" fill="#000000" d="M 509.5,50.5 C 510.833,51.1667 510.833,51.1667 509.5,50.5 Z"/></g>
<g><path style="opacity:1" fill="#f467bc" d="M 248.5,37.5 C 248.5,37.8333 248.5,38.1667 248.5,38.5C 247.207,40.2959 245.707,41.9625 244,43.5C 243.333,45.5 243.333,47.5 244,49.5C 244.383,50.056 244.883,50.3893 245.5,50.5C 245.5,50.8333 245.5,51.1667 245.5,51.5C 245.629,53.2161 245.962,54.8828 246.5,56.5C 243.807,57.6409 243.14,56.8076 244.5,54C 242.697,53.3632 241.364,52.1965 240.5,50.5C 240.781,47.5521 240.781,44.5521 240.5,41.5C 239.572,43.3348 238.406,43.6682 237,42.5C 234.689,46.4139 235.355,49.7473 239,52.5C 240.079,55.0627 240.579,57.7294 240.5,60.5C 242.833,60.5 245.167,60.5 247.5,60.5C 247.08,62.674 247.08,64.674 247.5,66.5C 246.5,67.8333 245.5,67.8333 244.5,66.5C 244.709,65.914 245.043,65.414 245.5,65C 242.325,65.0533 239.658,64.22 237.5,62.5C 238.167,62.5 238.833,62.5 239.5,62.5C 240.568,63.4345 241.901,63.7678 243.5,63.5C 243.833,63.5 244.167,63.5 244.5,63.5C 244.833,63.5 245.167,63.5 245.5,63.5C 246.043,63.44 246.376,63.1067 246.5,62.5C 244.257,61.5258 241.924,61.1924 239.5,61.5C 238.833,61.1667 238.167,60.8333 237.5,60.5C 237.802,57.9407 237.468,55.6074 236.5,53.5C 235.634,56.4243 234.634,59.4243 233.5,62.5C 232.269,61.3493 232.269,60.1827 233.5,59C 227.567,53.5055 226.9,47.3389 231.5,40.5C 231.291,39.914 230.957,39.414 230.5,39C 232.874,38.2568 234.874,38.7568 236.5,40.5C 238.344,38.7211 239.01,36.3878 238.5,33.5C 238.5,32.8333 238.833,32.5 239.5,32.5C 241.924,32.8076 244.257,32.4742 246.5,31.5C 244.604,30.5344 242.604,30.2011 240.5,30.5C 239.833,30.5 239.5,30.8333 239.5,31.5C 239.167,31.5 238.833,31.5 238.5,31.5C 238.414,30.5041 238.748,29.6708 239.5,29C 240.833,28.8333 242.167,28.6667 243.5,28.5C 247.744,28.071 249.41,29.7376 248.5,33.5C 246.111,35.507 243.444,35.8403 240.5,34.5C 240.5,35.5 240.5,36.5 240.5,37.5C 243.167,37.5 245.833,37.5 248.5,37.5 Z M 237.5,60.5 C 238.167,60.8333 238.833,61.1667 239.5,61.5C 239.5,61.8333 239.5,62.1667 239.5,62.5C 238.833,62.5 238.167,62.5 237.5,62.5C 237.5,61.8333 237.5,61.1667 237.5,60.5 Z"/></g>
<g><path style="opacity:0.403" fill="#696969" d="M 540.5,30.5 C 540.168,40.1896 540.502,49.8563 541.5,59.5C 542.167,58.8333 542.833,58.1667 543.5,57.5C 544.107,57.6236 544.44,57.9569 544.5,58.5C 543.221,59.968 541.554,60.6347 539.5,60.5C 539.173,50.3194 539.506,40.3194 540.5,30.5 Z"/></g>
<g><path style="opacity:0.588" fill="#6c6c6c" d="M 473.5,54.5 C 474.946,53.3871 476.613,53.2204 478.5,54C 477.934,54.9947 477.267,55.828 476.5,56.5C 476.179,54.9519 475.179,54.2852 473.5,54.5 Z"/></g>
<g><path style="opacity:0.004" fill="#000000" d="M 672.5,54.5 C 673.833,55.1667 673.833,55.1667 672.5,54.5 Z"/></g>
<g><path style="opacity:1" fill="#b14f89" d="M 246.5,44.5 C 246.405,47.6967 247.072,50.6967 248.5,53.5C 248.833,54.8333 249.167,54.8333 249.5,53.5C 251.833,53.5 254.167,53.5 256.5,53.5C 256.833,54.8333 257.167,54.8333 257.5,53.5C 258.167,53.5 258.5,53.1667 258.5,52.5C 259.167,52.5 259.5,52.1667 259.5,51.5C 260.167,51.5 260.5,51.1667 260.5,50.5C 260.833,50.5 261.167,50.5 261.5,50.5C 261.192,54.0091 259.192,55.6757 255.5,55.5C 253.052,56.4731 250.385,56.8064 247.5,56.5C 247.167,56.5 246.833,56.5 246.5,56.5C 245.962,54.8828 245.629,53.2161 245.5,51.5C 246.833,51.1667 246.833,50.8333 245.5,50.5C 245.205,48.2646 245.539,46.2646 246.5,44.5 Z"/></g>
<g><path style="opacity:0.356" fill="#5d5d5d" d="M 373.5,57.5 C 373.5,57.8333 373.5,58.1667 373.5,58.5C 373.5,61.8333 373.5,65.1667 373.5,68.5C 371.901,68.7678 370.568,68.4345 369.5,67.5C 370.5,67.5 371.5,67.5 372.5,67.5C 372.187,63.9581 372.521,60.6248 373.5,57.5 Z"/></g>
<g><path style="opacity:0.157" fill="#440e2c" d="M 269.5,61.5 C 269.167,61.5 268.833,61.5 268.5,61.5C 268.5,60.8333 268.167,60.5 267.5,60.5C 267.192,58.076 267.526,55.7427 268.5,53.5C 269.48,56.0865 269.813,58.7531 269.5,61.5 Z"/></g>
<g><path style="opacity:0.004" fill="#000000" d="M 586.5,58.5 C 587.833,59.1667 587.833,59.1667 586.5,58.5 Z"/></g>
<g><path style="opacity:0.004" fill="#000000" d="M 417.5,59.5 C 416.833,60.1667 416.833,60.1667 417.5,59.5 Z"/></g>
<g><path style="opacity:0.004" fill="#000000" d="M 93.5,60.5 C 94.8333,61.1667 94.8333,61.1667 93.5,60.5 Z"/></g>
<g><path style="opacity:0.004" fill="#000000" d="M 168.5,60.5 C 169.833,61.1667 169.833,61.1667 168.5,60.5 Z"/></g>
<g><path style="opacity:0.004" fill="#000000" d="M 576.5,60.5 C 577.833,61.1667 577.833,61.1667 576.5,60.5 Z"/></g>
<g><path style="opacity:0.004" fill="#000000" d="M 4.5,61.5 C 5.83333,62.1667 5.83333,62.1667 4.5,61.5 Z"/></g>
<g><path style="opacity:0.263" fill="#551230" d="M 239.5,62.5 C 239.5,62.1667 239.5,61.8333 239.5,61.5C 241.924,61.1924 244.257,61.5258 246.5,62.5C 246.376,63.1067 246.043,63.44 245.5,63.5C 245.167,62.1667 244.833,62.1667 244.5,63.5C 244.167,63.5 243.833,63.5 243.5,63.5C 242.432,62.5655 241.099,62.2322 239.5,62.5 Z"/></g>
<g><path style="opacity:0.255" fill="#4d193d" d="M 266.5,61.5 C 266.5,61.8333 266.5,62.1667 266.5,62.5C 264.265,62.2053 262.265,62.5386 260.5,63.5C 260.167,63.5 259.833,63.5 259.5,63.5C 261.279,61.6565 263.612,60.9898 266.5,61.5 Z"/></g>
<g><path style="opacity:0.004" fill="#000000" d="M 349.5,61.5 C 350.833,62.1667 350.833,62.1667 349.5,61.5 Z"/></g>
<g><path style="opacity:1" fill="#fd65c3" d="M 246.5,56.5 C 246.833,56.5 247.167,56.5 247.5,56.5C 248.609,57.29 249.942,57.79 251.5,58C 252.833,59 252.833,60 251.5,61C 256.157,63.7062 260.49,66.5395 264.5,69.5C 260.513,70.4981 256.513,71.4981 252.5,72.5C 247.417,71.457 242.417,70.1236 237.5,68.5C 236.892,67.2003 236.225,65.8669 235.5,64.5C 235.747,63.2867 236.414,62.62 237.5,62.5C 239.658,64.22 242.325,65.0533 245.5,65C 245.043,65.414 244.709,65.914 244.5,66.5C 245.5,67.8333 246.5,67.8333 247.5,66.5C 247.08,64.674 247.08,62.674 247.5,60.5C 245.167,60.5 242.833,60.5 240.5,60.5C 240.579,57.7294 240.079,55.0627 239,52.5C 235.355,49.7473 234.689,46.4139 237,42.5C 238.406,43.6682 239.572,43.3348 240.5,41.5C 240.781,44.5521 240.781,47.5521 240.5,50.5C 241.364,52.1965 242.697,53.3632 244.5,54C 243.14,56.8076 243.807,57.6409 246.5,56.5 Z"/></g>
<g><path style="opacity:0.954" fill="#d561a6" d="M 276.5,58.5 C 274.628,63.0432 271.628,66.7099 267.5,69.5C 267.714,67.8561 267.38,66.3561 266.5,65C 263.964,64.8138 261.631,64.3138 259.5,63.5C 259.833,63.5 260.167,63.5 260.5,63.5C 262.735,63.7947 264.735,63.4614 266.5,62.5C 267.167,62.5 267.5,62.1667 267.5,61.5C 267.833,61.5 268.167,61.5 268.5,61.5C 268.833,61.5 269.167,61.5 269.5,61.5C 266.693,64.0443 267.36,65.0443 271.5,64.5C 271.5,62.8333 271.5,61.1667 271.5,59.5C 273.216,59.3713 274.883,59.038 276.5,58.5 Z"/></g>
<g><path style="opacity:0.004" fill="#000000" d="M 67.5,64.5 C 68.8333,65.1667 68.8333,65.1667 67.5,64.5 Z"/></g>
<g><path style="opacity:0.004" fill="#000000" d="M 391.5,64.5 C 392.833,65.1667 392.833,65.1667 391.5,64.5 Z"/></g>
<g><path style="opacity:0.004" fill="#000000" d="M 0.5,66.5 C 1.83333,67.1667 1.83333,67.1667 0.5,66.5 Z"/></g>
<g><path style="opacity:0.004" fill="#000000" d="M 48.5,66.5 C 49.8333,67.1667 49.8333,67.1667 48.5,66.5 Z"/></g>
<g><path style="opacity:0.004" fill="#000000" d="M 225.5,66.5 C 226.833,67.1667 226.833,67.1667 225.5,66.5 Z"/></g>
<g><path style="opacity:0.004" fill="#000000" d="M 302.5,68.5 C 301.833,67.1667 301.833,67.1667 302.5,68.5 Z"/></g>
<g><path style="opacity:0.004" fill="#000000" d="M 110.5,68.5 C 111.833,69.1667 111.833,69.1667 110.5,68.5 Z"/></g>
<g><path style="opacity:0.004" fill="#000000" d="M 302.5,68.5 C 303.833,69.1667 303.833,69.1667 302.5,68.5 Z"/></g>
<g><path style="opacity:1" fill="#c15a97" d="M 237.5,68.5 C 242.417,70.1236 247.417,71.457 252.5,72.5C 256.513,71.4981 260.513,70.4981 264.5,69.5C 265.167,69.5 265.833,69.5 266.5,69.5C 262.45,72.6238 257.783,73.9571 252.5,73.5C 246.662,73.9986 241.662,72.3319 237.5,68.5 Z"/></g>
<g><path style="opacity:0.004" fill="#000000" d="M 543.5,69.5 C 544.833,70.1667 544.833,70.1667 543.5,69.5 Z"/></g>
<g><path style="opacity:0.004" fill="#000000" d="M 212.5,74.5 C 213.833,75.1667 213.833,75.1667 212.5,74.5 Z"/></g>
<g><path style="opacity:0.004" fill="#000000" d="M 410.5,74.5 C 411.833,75.1667 411.833,75.1667 410.5,74.5 Z"/></g>
<g><path style="opacity:0.004" fill="#000000" d="M 491.5,74.5 C 492.833,75.1667 492.833,75.1667 491.5,74.5 Z"/></g>
<g><path style="opacity:0.004" fill="#000000" d="M 9.5,75.5 C 10.8333,76.1667 10.8333,76.1667 9.5,75.5 Z"/></g>
<g><path style="opacity:0.004" fill="#000000" d="M 555.5,75.5 C 556.833,76.1667 556.833,76.1667 555.5,75.5 Z"/></g>
<g><path style="opacity:0.004" fill="#000000" d="M 70.5,76.5 C 71.8333,77.1667 71.8333,77.1667 70.5,76.5 Z"/></g>
<g><path style="opacity:0.004" fill="#000000" d="M 457.5,76.5 C 458.833,77.1667 458.833,77.1667 457.5,76.5 Z"/></g>
<g><path style="opacity:0.004" fill="#000000" d="M 559.5,76.5 C 560.833,77.1667 560.833,77.1667 559.5,76.5 Z"/></g>
<g><path style="opacity:0.004" fill="#000000" d="M 479.5,77.5 C 480.833,78.1667 480.833,78.1667 479.5,77.5 Z"/></g>
<g><path style="opacity:0.004" fill="#000000" d="M 159.5,78.5 C 160.833,79.1667 160.833,79.1667 159.5,78.5 Z"/></g>
<g><path style="opacity:0.004" fill="#000000" d="M 358.5,79.5 C 359.833,80.1667 359.833,80.1667 358.5,79.5 Z"/></g>
<g><path style="opacity:0.004" fill="#000000" d="M 290.5,80.5 C 291.833,81.1667 291.833,81.1667 290.5,80.5 Z"/></g>
<g><path style="opacity:0.004" fill="#000000" d="M 111.5,81.5 C 112.833,82.1667 112.833,82.1667 111.5,81.5 Z"/></g>
<g><path style="opacity:0.004" fill="#000000" d="M 576.5,81.5 C 577.833,82.1667 577.833,82.1667 576.5,81.5 Z"/></g>
<g><path style="opacity:0.004" fill="#000000" d="M 206.5,83.5 C 207.833,84.1667 207.833,84.1667 206.5,83.5 Z"/></g>
<g><path style="opacity:0.004" fill="#000000" d="M 443.5,83.5 C 444.833,84.1667 444.833,84.1667 443.5,83.5 Z"/></g>
<g><path style="opacity:0.004" fill="#000000" d="M 316.5,85.5 C 317.833,86.1667 317.833,86.1667 316.5,85.5 Z"/></g>
<g><path style="opacity:0.004" fill="#000000" d="M 69.5,87.5 C 70.8333,88.1667 70.8333,88.1667 69.5,87.5 Z"/></g>
<g><path style="opacity:0.004" fill="#000000" d="M 288.5,87.5 C 289.833,88.1667 289.833,88.1667 288.5,87.5 Z"/></g>
<g><path style="opacity:0.004" fill="#000000" d="M 221.5,89.5 C 220.833,88.1667 220.833,88.1667 221.5,89.5 Z"/></g>
</svg>
