<?xml version="1.0" encoding="UTF-8"?>
<!DOCTYPE svg PUBLIC "-//W3C//DTD SVG 1.1//EN" "http://www.w3.org/Graphics/SVG/1.1/DTD/svg11.dtd">
<svg xmlns="http://www.w3.org/2000/svg" version="1.1" width="432px" height="90px" style="shape-rendering:geometricPrecision; text-rendering:geometricPrecision; image-rendering:optimizeQuality; fill-rule:evenodd; clip-rule:evenodd" xmlns:xlink="http://www.w3.org/1999/xlink">
<g><path style="opacity:0.004" fill="#fefffe" d="M 11.5,0.5 C 12.8333,1.16667 12.8333,1.16667 11.5,0.5 Z"/></g>
<g><path style="opacity:0.004" fill="#fefffe" d="M 290.5,0.5 C 291.833,1.16667 291.833,1.16667 290.5,0.5 Z"/></g>
<g><path style="opacity:0.004" fill="#fefffe" d="M 329.5,1.5 C 330.833,2.16667 330.833,2.16667 329.5,1.5 Z"/></g>
<g><path style="opacity:0.004" fill="#fefffe" d="M 68.5,4.5 C 69.8333,5.16667 69.8333,5.16667 68.5,4.5 Z"/></g>
<g><path style="opacity:0.004" fill="#fefffe" d="M 137.5,5.5 C 138.833,6.16667 138.833,6.16667 137.5,5.5 Z"/></g>
<g><path style="opacity:0.004" fill="#fefffe" d="M 416.5,6.5 C 417.833,7.16667 417.833,7.16667 416.5,6.5 Z"/></g>
<g><path style="opacity:0.004" fill="#fefffe" d="M 86.5,7.5 C 87.8333,8.16667 87.8333,8.16667 86.5,7.5 Z"/></g>
<g><path style="opacity:0.004" fill="#fefffe" d="M 74.5,8.5 C 75.8333,9.16667 75.8333,9.16667 74.5,8.5 Z"/></g>
<g><path style="opacity:0.004" fill="#fefffe" d="M 104.5,9.5 C 105.833,10.1667 105.833,10.1667 104.5,9.5 Z"/></g>
<g><path style="opacity:0.004" fill="#fefffe" d="M 32.5,10.5 C 33.8333,11.1667 33.8333,11.1667 32.5,10.5 Z"/></g>
<g><path style="opacity:0.004" fill="#fefffe" d="M 293.5,11.5 C 294.833,12.1667 294.833,12.1667 293.5,11.5 Z"/></g>
<g><path style="opacity:0.004" fill="#fefffe" d="M 53.5,12.5 C 54.8333,13.1667 54.8333,13.1667 53.5,12.5 Z"/></g>
<g><path style="opacity:0.004" fill="#fefffe" d="M 188.5,12.5 C 189.833,13.1667 189.833,13.1667 188.5,12.5 Z"/></g>
<g><path style="opacity:0.004" fill="#fefffe" d="M 368.5,13.5 C 369.833,14.1667 369.833,14.1667 368.5,13.5 Z"/></g>
<g><path style="opacity:0.004" fill="#fefffe" d="M 332.5,17.5 C 333.833,18.1667 333.833,18.1667 332.5,17.5 Z"/></g>
<g><path style="opacity:1" fill="#eb78bc" d="M 86.5,17.5 C 84.4855,18.9238 82.1522,19.5905 79.5,19.5C 81.5145,18.0762 83.8478,17.4095 86.5,17.5 Z"/></g>
<g><path style="opacity:0.004" fill="#fefffe" d="M 254.5,18.5 C 255.833,19.1667 255.833,19.1667 254.5,18.5 Z"/></g>
<g><path style="opacity:1" fill="#f923a7" d="M 103.5,21.5 C 105.179,22.9997 106.512,24.833 107.5,27C 106.906,27.4643 106.239,27.631 105.5,27.5C 102.753,27.1866 100.086,27.52 97.5,28.5C 98.6888,29.4287 100.022,29.762 101.5,29.5C 101.5,29.8333 101.5,30.1667 101.5,30.5C 95.3468,31.7924 95.1801,33.459 101,35.5C 102.454,37.2439 102.621,38.9106 101.5,40.5C 100.596,39.791 100.263,38.791 100.5,37.5C 99.5,37.5 98.5,37.5 97.5,37.5C 97.4226,36.2502 96.756,35.4169 95.5,35C 93.1902,34.5034 90.8568,34.3367 88.5,34.5C 88.2965,32.6096 88.9632,31.1096 90.5,30C 88.3386,29.4153 86.3386,28.5819 84.5,27.5C 84.1667,27.5 83.8333,27.5 83.5,27.5C 80.3601,26.3592 77.0267,26.1925 73.5,27C 73.9574,27.414 74.2907,27.914 74.5,28.5C 72.8267,30.5225 72.1601,32.8559 72.5,35.5C 71.4415,34.3998 70.6082,33.0664 70,31.5C 66.7196,35.8905 65.2196,40.8905 65.5,46.5C 64.4608,42.6579 64.4608,38.6579 65.5,34.5C 66.1695,31.1511 67.8361,28.4844 70.5,26.5C 74.155,24.5093 77.8217,22.5093 81.5,20.5C 83.1667,21.1667 84.8333,21.8333 86.5,22.5C 87.7112,21.7261 87.7112,20.8928 86.5,20C 92.4854,17.807 98.1521,18.307 103.5,21.5 Z"/></g>
<g><path style="opacity:1" fill="#f25cb4" d="M 106.5,21.5 C 105.5,21.5 104.5,21.5 103.5,21.5C 98.1521,18.307 92.4854,17.807 86.5,20C 87.7112,20.8928 87.7112,21.7261 86.5,22.5C 84.8333,21.8333 83.1667,21.1667 81.5,20.5C 77.8217,22.5093 74.155,24.5093 70.5,26.5C 72.592,23.083 75.592,20.7497 79.5,19.5C 82.1522,19.5905 84.4855,18.9238 86.5,17.5C 93.7339,15.6387 100.401,16.972 106.5,21.5 Z"/></g>
<g><path style="opacity:0.004" fill="#fefffe" d="M 398.5,21.5 C 399.833,22.1667 399.833,22.1667 398.5,21.5 Z"/></g>
<g><path style="opacity:0.004" fill="#fefffe" d="M 341.5,23.5 C 342.833,24.1667 342.833,24.1667 341.5,23.5 Z"/></g>
<g><path style="opacity:0.004" fill="#fefffe" d="M 11.5,24.5 C 12.8333,25.1667 12.8333,25.1667 11.5,24.5 Z"/></g>
<g><path style="opacity:0.004" fill="#fefffe" d="M 20.5,24.5 C 21.8333,25.1667 21.8333,25.1667 20.5,24.5 Z"/></g>
<g><path style="opacity:1" fill="#eb7bb8" d="M 107.5,21.5 C 109.167,22.5 110.5,23.8333 111.5,25.5C 108.858,25.5123 107.525,24.179 107.5,21.5 Z"/></g>
<g><path style="opacity:0.004" fill="#fefffe" d="M 20.5,26.5 C 21.8333,27.1667 21.8333,27.1667 20.5,26.5 Z"/></g>
<g><path style="opacity:0.937" fill="#f9a8dd" d="M 111.5,25.5 C 113.262,26.2623 114.262,27.5956 114.5,29.5C 112.738,28.7377 111.738,27.4044 111.5,25.5 Z"/></g>
<g><path style="opacity:0.004" fill="#fefffe" d="M 170.5,26.5 C 171.833,27.1667 171.833,27.1667 170.5,26.5 Z"/></g>
<g><path style="opacity:0.004" fill="#fefffe" d="M 353.5,26.5 C 354.833,27.1667 354.833,27.1667 353.5,26.5 Z"/></g>
<g><path style="opacity:0.004" fill="#fefffe" d="M 275.5,27.5 C 276.833,28.1667 276.833,28.1667 275.5,27.5 Z"/></g>
<g><path style="opacity:0.004" fill="#fefffe" d="M 59.5,28.5 C 60.8333,29.1667 60.8333,29.1667 59.5,28.5 Z"/></g>
<g><path style="opacity:0.227" fill="#ffc0f2" d="M 105.5,27.5 C 105.5,27.8333 105.5,28.1667 105.5,28.5C 105.5,28.8333 105.5,29.1667 105.5,29.5C 104.167,29.5 102.833,29.5 101.5,29.5C 100.022,29.762 98.6888,29.4287 97.5,28.5C 100.086,27.52 102.753,27.1866 105.5,27.5 Z"/></g>
<g><path style="opacity:1" fill="#f030a5" d="M 103.5,21.5 C 104.5,21.5 105.5,21.5 106.5,21.5C 106.833,21.5 107.167,21.5 107.5,21.5C 107.525,24.179 108.858,25.5123 111.5,25.5C 111.738,27.4044 112.738,28.7377 114.5,29.5C 114.427,31.0269 115.094,32.0269 116.5,32.5C 116.5,33.5 116.5,34.5 116.5,35.5C 114.868,34.5543 113.201,33.5543 111.5,32.5C 110.725,34.8432 110.058,37.1766 109.5,39.5C 108.432,40.4345 107.099,40.7678 105.5,40.5C 105.665,37.4816 105.498,34.4816 105,31.5C 103.989,30.6634 102.822,30.33 101.5,30.5C 101.5,30.1667 101.5,29.8333 101.5,29.5C 102.833,29.5 104.167,29.5 105.5,29.5C 106.833,29.1667 106.833,28.8333 105.5,28.5C 105.5,28.1667 105.5,27.8333 105.5,27.5C 106.239,27.631 106.906,27.4643 107.5,27C 106.512,24.833 105.179,22.9997 103.5,21.5 Z"/></g>
<g><path style="opacity:0.004" fill="#fefffe" d="M 248.5,29.5 C 249.833,30.1667 249.833,30.1667 248.5,29.5 Z"/></g>
<g><path style="opacity:0.004" fill="#fefffe" d="M 29.5,30.5 C 30.8333,31.1667 30.8333,31.1667 29.5,30.5 Z"/></g>
<g><path style="opacity:1" fill="#f23ea9" d="M 83.5,27.5 C 80.9407,27.1984 78.6074,27.5318 76.5,28.5C 76.5,29.1667 76.8333,29.5 77.5,29.5C 80.3878,30.0102 82.7211,29.3435 84.5,27.5C 86.3386,28.5819 88.3386,29.4153 90.5,30C 88.9632,31.1096 88.2965,32.6096 88.5,34.5C 90.8568,34.3367 93.1902,34.5034 95.5,35C 96.756,35.4169 97.4226,36.2502 97.5,37.5C 96.8333,37.5 96.1667,37.5 95.5,37.5C 95.1583,36.6618 94.4916,36.3284 93.5,36.5C 92.791,35.596 91.791,35.2627 90.5,35.5C 89.209,35.2627 88.209,35.596 87.5,36.5C 86.5,36.5 85.5,36.5 84.5,36.5C 84.5759,34.6965 84.2425,32.6965 83.5,30.5C 81.5,30.5 79.5,30.5 77.5,30.5C 77.6621,32.5273 77.4955,34.5273 77,36.5C 76.1841,37.8228 75.0174,38.4894 73.5,38.5C 72.8902,37.609 72.5569,36.609 72.5,35.5C 72.1601,32.8559 72.8267,30.5225 74.5,28.5C 74.2907,27.914 73.9574,27.414 73.5,27C 77.0267,26.1925 80.3601,26.3592 83.5,27.5 Z"/></g>
<g><path style="opacity:0.067" fill="#ffc7fb" d="M 76.5,28.5 C 78.6074,27.5318 80.9407,27.1984 83.5,27.5C 83.8333,27.5 84.1667,27.5 84.5,27.5C 82.7211,29.3435 80.3878,30.0102 77.5,29.5C 76.8333,29.5 76.5,29.1667 76.5,28.5 Z"/></g>
<g><path style="opacity:0.004" fill="#fefffe" d="M 410.5,30.5 C 411.833,31.1667 411.833,31.1667 410.5,30.5 Z"/></g>
<g><path style="opacity:0.085" fill="#ffbcff" d="M 106.5,30.5 C 107.725,31.1522 108.392,32.3189 108.5,34C 108.167,35.1667 107.833,36.3333 107.5,37.5C 106.526,35.2573 106.192,32.924 106.5,30.5 Z"/></g>
<g><path style="opacity:0.255" fill="#ffbdf2" d="M 114.5,29.5 C 115.906,29.9731 116.573,30.9731 116.5,32.5C 115.094,32.0269 114.427,31.0269 114.5,29.5 Z"/></g>
<g><path style="opacity:0.004" fill="#fefffe" d="M 350.5,31.5 C 351.833,32.1667 351.833,32.1667 350.5,31.5 Z"/></g>
<g><path style="opacity:1" fill="#fc1eab" d="M 72.5,35.5 C 72.5569,36.609 72.8902,37.609 73.5,38.5C 73.3359,41.1873 73.5026,43.854 74,46.5C 75.8415,48.1591 77.0081,50.1591 77.5,52.5C 77.1667,52.5 76.8333,52.5 76.5,52.5C 76.5,51.8333 76.1667,51.5 75.5,51.5C 75.1667,51.5 74.8333,51.5 74.5,51.5C 74.3252,49.1556 73.1585,47.489 71,46.5C 69.6782,37.7241 68.5115,37.5574 67.5,46C 68.2575,48.3803 69.5908,50.3803 71.5,52C 70.9561,53.585 70.2894,55.085 69.5,56.5C 69.1667,56.5 68.8333,56.5 68.5,56.5C 67.391,56.4431 66.391,56.1098 65.5,55.5C 65.5,55.1667 65.5,54.8333 65.5,54.5C 65.5,51.8333 65.5,49.1667 65.5,46.5C 65.2196,40.8905 66.7196,35.8905 70,31.5C 70.6082,33.0664 71.4415,34.3998 72.5,35.5 Z"/></g>
<g><path style="opacity:0.004" fill="#fefffe" d="M 8.5,34.5 C 9.83333,35.1667 9.83333,35.1667 8.5,34.5 Z"/></g>
<g><path style="opacity:0.212" fill="#ffc3f3" d="M 87.5,36.5 C 88.209,35.596 89.209,35.2627 90.5,35.5C 91.209,36.404 92.209,36.7373 93.5,36.5C 93.5,36.8333 93.5,37.1667 93.5,37.5C 91.8333,37.5 90.1667,37.5 88.5,37.5C 88.5,36.8333 88.1667,36.5 87.5,36.5 Z"/></g>
<g><path style="opacity:1" fill="#fb1ea6" d="M 84.5,36.5 C 83.5416,36.9528 82.7083,37.6195 82,38.5C 81.1993,41.367 81.3659,44.0336 82.5,46.5C 82.5,46.8333 82.5,47.1667 82.5,47.5C 82.3284,48.4916 82.6618,49.1583 83.5,49.5C 83.5394,50.5832 83.8728,51.5832 84.5,52.5C 86.9009,53.3576 88.9009,54.691 90.5,56.5C 89.4324,57.4345 88.099,57.7678 86.5,57.5C 86.6463,55.0576 85.813,54.3909 84,55.5C 81.6612,53.8599 80.8279,51.8599 81.5,49.5C 80.846,47.8849 80.346,46.2182 80,44.5C 79.7744,47.095 79.2744,49.595 78.5,52C 79.1905,53.0674 79.6905,54.2341 80,55.5C 80.6667,56.8333 81.3333,56.8333 82,55.5C 82.4828,56.448 82.6495,57.448 82.5,58.5C 80.8333,58.5 79.1667,58.5 77.5,58.5C 77.5,56.5 77.5,54.5 77.5,52.5C 77.0081,50.1591 75.8415,48.1591 74,46.5C 73.5026,43.854 73.3359,41.1873 73.5,38.5C 75.0174,38.4894 76.1841,37.8228 77,36.5C 77.4955,34.5273 77.6621,32.5273 77.5,30.5C 79.5,30.5 81.5,30.5 83.5,30.5C 84.2425,32.6965 84.5759,34.6965 84.5,36.5 Z"/></g>
<g><path style="opacity:1" fill="#ed65b8" d="M 84.5,36.5 C 85.5,36.5 86.5,36.5 87.5,36.5C 88.1667,36.5 88.5,36.8333 88.5,37.5C 90.1667,37.5 91.8333,37.5 93.5,37.5C 94.1667,37.5 94.8333,37.5 95.5,37.5C 95.8417,38.3382 96.5084,38.6716 97.5,38.5C 97.5,39.1667 97.5,39.8333 97.5,40.5C 93.6836,38.2896 89.6836,37.9562 85.5,39.5C 85.0617,41.126 84.7284,42.7927 84.5,44.5C 85.2043,46.5351 85.871,48.5351 86.5,50.5C 86.1667,50.5 85.8333,50.5 85.5,50.5C 85.5,49.8333 85.1667,49.5 84.5,49.5C 84.1667,48.1667 83.8333,48.1667 83.5,49.5C 82.6618,49.1583 82.3284,48.4916 82.5,47.5C 83.337,40.8592 83.337,40.5259 82.5,46.5C 81.3659,44.0336 81.1993,41.367 82,38.5C 82.7083,37.6195 83.5416,36.9528 84.5,36.5 Z"/></g>
<g><path style="opacity:1" fill="#fc1ca8" d="M 101.5,30.5 C 102.822,30.33 103.989,30.6634 105,31.5C 105.498,34.4816 105.665,37.4816 105.5,40.5C 107.099,40.7678 108.432,40.4345 109.5,39.5C 111.777,39.8634 112.444,40.8634 111.5,42.5C 113.973,42.6755 115.306,44.3421 115.5,47.5C 113.273,48.9753 111.773,50.6419 111,52.5C 110.5,51.3333 109.667,50.5 108.5,50C 110.738,48.0598 110.738,45.8931 108.5,43.5C 107.702,45.0777 107.202,46.7444 107,48.5C 106.667,48.1667 106.333,47.8333 106,47.5C 104.249,48.2225 102.749,49.2225 101.5,50.5C 101.5,49.5 101.5,48.5 101.5,47.5C 101.5,45.1667 101.5,42.8333 101.5,40.5C 102.621,38.9106 102.454,37.2439 101,35.5C 95.1801,33.459 95.3468,31.7924 101.5,30.5 Z"/></g>
<g><path style="opacity:1" fill="#fb1ea8" d="M 116.5,35.5 C 117.797,40.2669 117.797,44.9335 116.5,49.5C 116.672,48.5084 116.338,47.8417 115.5,47.5C 115.306,44.3421 113.973,42.6755 111.5,42.5C 112.444,40.8634 111.777,39.8634 109.5,39.5C 110.058,37.1766 110.725,34.8432 111.5,32.5C 113.201,33.5543 114.868,34.5543 116.5,35.5 Z"/></g>
<g><path style="opacity:0.004" fill="#fefffe" d="M 125.5,38.5 C 126.833,39.1667 126.833,39.1667 125.5,38.5 Z"/></g>
<g><path style="opacity:0.004" fill="#fefffe" d="M 383.5,38.5 C 384.833,39.1667 384.833,39.1667 383.5,38.5 Z"/></g>
<g><path style="opacity:0.004" fill="#fefffe" d="M 422.5,38.5 C 423.833,39.1667 423.833,39.1667 422.5,38.5 Z"/></g>
<g><path style="opacity:1" fill="#fd1da5" d="M 74.5,51.5 C 73.8333,51.5 73.5,51.8333 73.5,52.5C 72.5489,53.9187 72.2155,55.5853 72.5,57.5C 71.209,57.7373 70.209,57.404 69.5,56.5C 70.2894,55.085 70.9561,53.585 71.5,52C 69.5908,50.3803 68.2575,48.3803 67.5,46C 68.5115,37.5574 69.6782,37.7241 71,46.5C 73.1585,47.489 74.3252,49.1556 74.5,51.5 Z"/></g>
<g><path style="opacity:0.004" fill="#fefffe" d="M 389.5,39.5 C 390.833,40.1667 390.833,40.1667 389.5,39.5 Z"/></g>
<g><path style="opacity:1" fill="#f82ca7" d="M 97.5,40.5 C 97.5,43.1667 97.5,45.8333 97.5,48.5C 97.5,49.1667 97.5,49.8333 97.5,50.5C 96.8333,50.5 96.5,50.8333 96.5,51.5C 95.5084,51.3284 94.8417,51.6618 94.5,52.5C 92.5,52.5 90.5,52.5 88.5,52.5C 88.1583,51.6618 87.4916,51.3284 86.5,51.5C 86.5,51.1667 86.5,50.8333 86.5,50.5C 85.871,48.5351 85.2043,46.5351 84.5,44.5C 84.7284,42.7927 85.0617,41.126 85.5,39.5C 89.6836,37.9562 93.6836,38.2896 97.5,40.5 Z"/></g>
<g><path style="opacity:0.004" fill="#fefffe" d="M 218.5,41.5 C 219.833,42.1667 219.833,42.1667 218.5,41.5 Z"/></g>
<g><path style="opacity:0.004" fill="#fefffe" d="M 338.5,42.5 C 339.833,43.1667 339.833,43.1667 338.5,42.5 Z"/></g>
<g><path style="opacity:1" fill="#e45baf" d="M 97.5,38.5 C 97.5,38.1667 97.5,37.8333 97.5,37.5C 98.5,37.5 99.5,37.5 100.5,37.5C 100.263,38.791 100.596,39.791 101.5,40.5C 101.5,42.8333 101.5,45.1667 101.5,47.5C 100.833,47.5 100.167,47.5 99.5,47.5C 98.794,46.4427 98.4607,46.7761 98.5,48.5C 98.1667,48.5 97.8333,48.5 97.5,48.5C 97.5,45.8333 97.5,43.1667 97.5,40.5C 98.8333,39.8333 98.8333,39.1667 97.5,38.5 Z"/></g>
<g><path style="opacity:0.004" fill="#fefffe" d="M 305.5,45.5 C 306.525,45.8966 306.692,46.5632 306,47.5C 305.536,46.9056 305.369,46.2389 305.5,45.5 Z"/></g>
<g><path style="opacity:1" fill="#f483c9" d="M 65.5,34.5 C 64.4608,38.6579 64.4608,42.6579 65.5,46.5C 65.5,49.1667 65.5,51.8333 65.5,54.5C 64.4217,52.4606 63.4217,50.294 62.5,48C 63.0094,43.2961 64.0094,38.7961 65.5,34.5 Z"/></g>
<g><path style="opacity:1" fill="#ed82c5" d="M 116.5,32.5 C 120.428,40.5106 120.428,48.5106 116.5,56.5C 116.5,54.1667 116.5,51.8333 116.5,49.5C 117.797,44.9335 117.797,40.2669 116.5,35.5C 116.5,34.5 116.5,33.5 116.5,32.5 Z"/></g>
<g><path style="opacity:0.004" fill="#fefffe" d="M 182.5,46.5 C 183.833,47.1667 183.833,47.1667 182.5,46.5 Z"/></g>
<g><path style="opacity:0.004" fill="#fefffe" d="M 23.5,49.5 C 24.8333,50.1667 24.8333,50.1667 23.5,49.5 Z"/></g>
<g><path style="opacity:1" fill="#fa20a9" d="M 115.5,47.5 C 116.338,47.8417 116.672,48.5084 116.5,49.5C 116.5,51.8333 116.5,54.1667 116.5,56.5C 115.732,55.7375 115.232,54.7375 115,53.5C 113.397,55.7341 111.897,58.0674 110.5,60.5C 109.833,57.3583 109.166,54.3583 108.5,51.5C 107.833,51.5 107.167,51.5 106.5,51.5C 104.585,51.7845 102.919,51.4511 101.5,50.5C 102.749,49.2225 104.249,48.2225 106,47.5C 106.333,47.8333 106.667,48.1667 107,48.5C 107.202,46.7444 107.702,45.0777 108.5,43.5C 110.738,45.8931 110.738,48.0598 108.5,50C 109.667,50.5 110.5,51.3333 111,52.5C 111.773,50.6419 113.273,48.9753 115.5,47.5 Z"/></g>
<g><path style="opacity:0.004" fill="#fefffe" d="M 152.5,49.5 C 153.833,50.1667 153.833,50.1667 152.5,49.5 Z"/></g>
<g><path style="opacity:0.004" fill="#fefffe" d="M 146.5,50.5 C 147.833,51.1667 147.833,51.1667 146.5,50.5 Z"/></g>
<g><path style="opacity:0.004" fill="#fefffe" d="M 395.5,52.5 C 396.833,53.1667 396.833,53.1667 395.5,52.5 Z"/></g>
<g><path style="opacity:0.051" fill="#ffb2fd" d="M 106.5,51.5 C 107.167,51.5 107.833,51.5 108.5,51.5C 108.806,54.3854 108.473,57.0521 107.5,59.5C 107.672,58.5084 107.338,57.8417 106.5,57.5C 106.5,55.5 106.5,53.5 106.5,51.5 Z"/></g>
<g><path style="opacity:0.004" fill="#fefffe" d="M 338.5,53.5 C 339.833,54.1667 339.833,54.1667 338.5,53.5 Z"/></g>
<g><path style="opacity:0.671" fill="#f779ce" d="M 74.5,51.5 C 74.8333,60.8333 75.1667,60.8333 75.5,51.5C 76.1667,51.5 76.5,51.8333 76.5,52.5C 76.5,54.8333 76.5,57.1667 76.5,59.5C 75.4427,60.206 75.7761,60.5393 77.5,60.5C 77.5,60.8333 77.5,61.1667 77.5,61.5C 76.1779,61.67 75.0113,61.3366 74,60.5C 73.5026,57.854 73.3359,55.1873 73.5,52.5C 73.5,51.8333 73.8333,51.5 74.5,51.5 Z"/></g>
<g><path style="opacity:1" fill="#f137a6" d="M 99.5,47.5 C 100.167,47.5 100.833,47.5 101.5,47.5C 101.5,48.5 101.5,49.5 101.5,50.5C 102.919,51.4511 104.585,51.7845 106.5,51.5C 106.5,53.5 106.5,55.5 106.5,57.5C 106.5,58.1667 106.5,58.8333 106.5,59.5C 106.167,59.5 105.833,59.5 105.5,59.5C 103.167,59.5 100.833,59.5 98.5,59.5C 98.5,59.1667 98.5,58.8333 98.5,58.5C 100.5,58.5 102.5,58.5 104.5,58.5C 104.5,57.5 104.5,56.5 104.5,55.5C 102.173,55.7529 100.173,55.0863 98.5,53.5C 97.8333,54.5 97.1667,55.5 96.5,56.5C 94.5184,55.3775 92.5184,55.3775 90.5,56.5C 88.9009,54.691 86.9009,53.3576 84.5,52.5C 83.8728,51.5832 83.5394,50.5832 83.5,49.5C 83.8333,49.5 84.1667,49.5 84.5,49.5C 85.1667,49.5 85.5,49.8333 85.5,50.5C 85.5,51.1667 85.8333,51.5 86.5,51.5C 86.8417,52.3382 87.5084,52.6716 88.5,52.5C 90.5,53.8333 92.5,53.8333 94.5,52.5C 95.4916,52.6716 96.1583,52.3382 96.5,51.5C 97.1667,51.5 97.5,51.1667 97.5,50.5C 98.3382,50.1583 98.6716,49.4916 98.5,48.5C 99.1667,48.5 99.5,48.1667 99.5,47.5 Z"/></g>
<g><path style="opacity:0.004" fill="#fefffe" d="M 203.5,54.5 C 204.833,55.1667 204.833,55.1667 203.5,54.5 Z"/></g>
<g><path style="opacity:1" fill="#fd1bab" d="M 90.5,56.5 C 92.5184,55.3775 94.5184,55.3775 96.5,56.5C 97.1667,55.5 97.8333,54.5 98.5,53.5C 100.173,55.0863 102.173,55.7529 104.5,55.5C 104.5,56.5 104.5,57.5 104.5,58.5C 102.5,58.5 100.5,58.5 98.5,58.5C 97.2502,58.5774 96.4169,59.244 96,60.5C 92.7571,60.0602 89.2571,59.7268 85.5,59.5C 84.791,58.596 83.791,58.2627 82.5,58.5C 82.6495,57.448 82.4828,56.448 82,55.5C 81.3333,56.8333 80.6667,56.8333 80,55.5C 79.6905,54.2341 79.1905,53.0674 78.5,52C 79.2744,49.595 79.7744,47.095 80,44.5C 80.346,46.2182 80.846,47.8849 81.5,49.5C 80.8279,51.8599 81.6612,53.8599 84,55.5C 85.813,54.3909 86.6463,55.0576 86.5,57.5C 88.099,57.7678 89.4324,57.4345 90.5,56.5 Z"/></g>
<g><path style="opacity:0.004" fill="#fefffe" d="M 140.5,55.5 C 141.833,56.1667 141.833,56.1667 140.5,55.5 Z"/></g>
<g><path style="opacity:0.004" fill="#fefffe" d="M 260.5,55.5 C 261.833,56.1667 261.833,56.1667 260.5,55.5 Z"/></g>
<g><path style="opacity:1" fill="#f694ce" d="M 65.5,55.5 C 66.391,56.1098 67.391,56.4431 68.5,56.5C 68.8782,58.921 69.5448,61.2543 70.5,63.5C 68.0499,61.3709 66.3833,58.7043 65.5,55.5 Z"/></g>
<g><path style="opacity:0.004" fill="#fefffe" d="M 119.5,56.5 C 120.833,57.1667 120.833,57.1667 119.5,56.5 Z"/></g>
<g><path style="opacity:0.004" fill="#fefffe" d="M 344.5,57.5 C 345.833,58.1667 345.833,58.1667 344.5,57.5 Z"/></g>
<g><path style="opacity:0.004" fill="#fefffe" d="M 353.5,58.5 C 354.833,59.1667 354.833,59.1667 353.5,58.5 Z"/></g>
<g><path style="opacity:1" fill="#fb20a6" d="M 98.5,58.5 C 98.5,58.8333 98.5,59.1667 98.5,59.5C 97.1667,60.1667 97.1667,60.8333 98.5,61.5C 100.833,61.5 103.167,61.5 105.5,61.5C 106.791,61.2627 107.791,61.596 108.5,62.5C 107.566,63.5676 107.232,64.901 107.5,66.5C 105.473,66.3379 103.473,66.5045 101.5,67C 102.167,67.3333 102.833,67.6667 103.5,68C 95.3944,70.7773 87.0611,71.2773 78.5,69.5C 78.1667,68.8333 77.8333,68.1667 77.5,67.5C 76.9332,65.9705 76.2666,64.4705 75.5,63C 78.8168,62.5017 82.1501,62.335 85.5,62.5C 85.5,61.5 85.5,60.5 85.5,59.5C 89.2571,59.7268 92.7571,60.0602 96,60.5C 96.4169,59.244 97.2502,58.5774 98.5,58.5 Z"/></g>
<g><path style="opacity:0.478" fill="#f597d5" d="M 98.5,59.5 C 100.833,59.5 103.167,59.5 105.5,59.5C 105.5,59.8333 105.5,60.1667 105.5,60.5C 102.941,60.1984 100.607,60.5318 98.5,61.5C 97.1667,60.8333 97.1667,60.1667 98.5,59.5 Z"/></g>
<g><path style="opacity:0.004" fill="#fefffe" d="M 230.5,59.5 C 231.833,60.1667 231.833,60.1667 230.5,59.5 Z"/></g>
<g><path style="opacity:0.004" fill="#fefffe" d="M 8.5,60.5 C 9.83333,61.1667 9.83333,61.1667 8.5,60.5 Z"/></g>
<g><path style="opacity:1" fill="#f154b1" d="M 108.5,51.5 C 109.166,54.3583 109.833,57.3583 110.5,60.5C 111.897,58.0674 113.397,55.7341 115,53.5C 115.232,54.7375 115.732,55.7375 116.5,56.5C 114.967,60.704 112.3,64.0374 108.5,66.5C 108.5,65.1667 108.5,63.8333 108.5,62.5C 107.791,61.596 106.791,61.2627 105.5,61.5C 105.5,61.1667 105.5,60.8333 105.5,60.5C 106.167,60.5 106.5,60.1667 106.5,59.5C 106.833,59.5 107.167,59.5 107.5,59.5C 108.473,57.0521 108.806,54.3854 108.5,51.5 Z"/></g>
<g><path style="opacity:0.004" fill="#fefffe" d="M 248.5,60.5 C 249.833,61.1667 249.833,61.1667 248.5,60.5 Z"/></g>
<g><path style="opacity:0.004" fill="#fefffe" d="M 389.5,60.5 C 390.833,61.1667 390.833,61.1667 389.5,60.5 Z"/></g>
<g><path style="opacity:0.004" fill="#fefffe" d="M 209.5,61.5 C 210.833,62.1667 210.833,62.1667 209.5,61.5 Z"/></g>
<g><path style="opacity:0.004" fill="#fefffe" d="M 347.5,61.5 C 348.833,62.1667 348.833,62.1667 347.5,61.5 Z"/></g>
<g><path style="opacity:0.004" fill="#fefffe" d="M 380.5,61.5 C 381.833,62.1667 381.833,62.1667 380.5,61.5 Z"/></g>
<g><path style="opacity:1" fill="#ef2ea3" d="M 73.5,52.5 C 73.3359,55.1873 73.5026,57.854 74,60.5C 75.0113,61.3366 76.1779,61.67 77.5,61.5C 79.1667,61.5 80.8333,61.5 82.5,61.5C 83.3764,61.6309 84.0431,61.2975 84.5,60.5C 82.2573,59.5258 79.924,59.1924 77.5,59.5C 77.1667,59.5 76.8333,59.5 76.5,59.5C 76.5,57.1667 76.5,54.8333 76.5,52.5C 76.8333,52.5 77.1667,52.5 77.5,52.5C 77.5,54.5 77.5,56.5 77.5,58.5C 79.1667,58.5 80.8333,58.5 82.5,58.5C 83.791,58.2627 84.791,58.596 85.5,59.5C 85.5,60.5 85.5,61.5 85.5,62.5C 82.1501,62.335 78.8168,62.5017 75.5,63C 76.2666,64.4705 76.9332,65.9705 77.5,67.5C 76.8333,67.5 76.1667,67.5 75.5,67.5C 74.4154,65.4131 72.7488,64.0798 70.5,63.5C 69.5448,61.2543 68.8782,58.921 68.5,56.5C 68.8333,56.5 69.1667,56.5 69.5,56.5C 70.209,57.404 71.209,57.7373 72.5,57.5C 72.2155,55.5853 72.5489,53.9187 73.5,52.5 Z"/></g>
<g><path style="opacity:0.539" fill="#f89ddb" d="M 77.5,60.5 C 77.5,60.1667 77.5,59.8333 77.5,59.5C 79.924,59.1924 82.2573,59.5258 84.5,60.5C 84.0431,61.2975 83.3764,61.6309 82.5,61.5C 81.0813,60.5489 79.4147,60.2155 77.5,60.5 Z"/></g>
<g><path style="opacity:0.882" fill="#faace1" d="M 70.5,63.5 C 72.7488,64.0798 74.4154,65.4131 75.5,67.5C 73.2512,66.9202 71.5846,65.5869 70.5,63.5 Z"/></g>
<g><path style="opacity:0.004" fill="#fefffe" d="M 194.5,64.5 C 195.833,65.1667 195.833,65.1667 194.5,64.5 Z"/></g>
<g><path style="opacity:0.004" fill="#fefffe" d="M 269.5,64.5 C 270.833,65.1667 270.833,65.1667 269.5,64.5 Z"/></g>
<g><path style="opacity:0.004" fill="#fefffe" d="M 359.5,64.5 C 360.833,65.1667 360.833,65.1667 359.5,64.5 Z"/></g>
<g><path style="opacity:1" fill="#f36cbc" d="M 108.5,62.5 C 108.5,63.8333 108.5,65.1667 108.5,66.5C 101.506,72.0457 93.5059,73.879 84.5,72C 82.2774,71.4338 80.2774,70.6005 78.5,69.5C 87.0611,71.2773 95.3944,70.7773 103.5,68C 102.833,67.6667 102.167,67.3333 101.5,67C 103.473,66.5045 105.473,66.3379 107.5,66.5C 107.232,64.901 107.566,63.5676 108.5,62.5 Z"/></g>
<g><path style="opacity:0.176" fill="#fdc6ee" d="M 75.5,67.5 C 76.1667,67.5 76.8333,67.5 77.5,67.5C 77.8333,68.1667 78.1667,68.8333 78.5,69.5C 76.9731,69.573 75.9731,68.9063 75.5,67.5 Z"/></g>
<g><path style="opacity:0.004" fill="#fefffe" d="M 137.5,68.5 C 138.833,69.1667 138.833,69.1667 137.5,68.5 Z"/></g>
<g><path style="opacity:0.004" fill="#fefffe" d="M 233.5,68.5 C 234.833,69.1667 234.833,69.1667 233.5,68.5 Z"/></g>
<g><path style="opacity:0.004" fill="#fefffe" d="M 275.5,68.5 C 276.833,69.1667 276.833,69.1667 275.5,68.5 Z"/></g>
<g><path style="opacity:0.004" fill="#fefffe" d="M 230.5,70.5 C 231.833,71.1667 231.833,71.1667 230.5,70.5 Z"/></g>
<g><path style="opacity:0.004" fill="#fefffe" d="M 401.5,70.5 C 402.833,71.1667 402.833,71.1667 401.5,70.5 Z"/></g>
<g><path style="opacity:0.004" fill="#fefffe" d="M 56.5,71.5 C 57.8333,72.1667 57.8333,72.1667 56.5,71.5 Z"/></g>
<g><path style="opacity:0.004" fill="#fefffe" d="M 5.5,72.5 C 6.83333,73.1667 6.83333,73.1667 5.5,72.5 Z"/></g>
<g><path style="opacity:0.004" fill="#fefffe" d="M 26.5,74.5 C 27.8333,75.1667 27.8333,75.1667 26.5,74.5 Z"/></g>
<g><path style="opacity:0.004" fill="#fefffe" d="M 314.5,74.5 C 315.833,75.1667 315.833,75.1667 314.5,74.5 Z"/></g>
<g><path style="opacity:0.004" fill="#fefffe" d="M 410.5,74.5 C 411.833,75.1667 411.833,75.1667 410.5,74.5 Z"/></g>
<g><path style="opacity:0.004" fill="#fefffe" d="M 284.5,76.5 C 285.833,77.1667 285.833,77.1667 284.5,76.5 Z"/></g>
<g><path style="opacity:0.004" fill="#fefffe" d="M 350.5,76.5 C 351.833,77.1667 351.833,77.1667 350.5,76.5 Z"/></g>
<g><path style="opacity:0.004" fill="#fefffe" d="M 125.5,77.5 C 126.833,78.1667 126.833,78.1667 125.5,77.5 Z"/></g>
<g><path style="opacity:0.004" fill="#fefffe" d="M 413.5,78.5 C 414.833,79.1667 414.833,79.1667 413.5,78.5 Z"/></g>
<g><path style="opacity:0.004" fill="#fefffe" d="M 38.5,80.5 C 39.8333,81.1667 39.8333,81.1667 38.5,80.5 Z"/></g>
<g><path style="opacity:0.004" fill="#fefffe" d="M 329.5,86.5 C 330.833,87.1667 330.833,87.1667 329.5,86.5 Z"/></g>
<g><path style="opacity:0.004" fill="#fefffe" d="M 92.5,87.5 C 93.8333,88.1667 93.8333,88.1667 92.5,87.5 Z"/></g>
</svg>
